HIERARCHY
ROOT joint_0
{
	OFFSET 0.000000 0.000000 0.000000
	CHANNELS 6 Xposition Yposition Zposition Zrotation Yrotation Xrotation 
	JOINT joint_1
	{
		OFFSET 8.185791 -2.713684 100.414917
		CHANNELS 3 Zrotation Yrotation Xrotation
		JOINT joint_2
		{
			OFFSET -4.376465 -1.111145 91.934082
			CHANNELS 3 Zrotation Yrotation Xrotation
			JOINT joint_3
			{
				OFFSET -6.985840 -1.054016 91.669922
				CHANNELS 3 Zrotation Yrotation Xrotation
				JOINT joint_4
				{
					OFFSET 0.150391 -4.451904 123.526001
					CHANNELS 3 Zrotation Yrotation Xrotation
					JOINT joint_5
					{
						OFFSET 19.754150 -8.123901 80.916992
						CHANNELS 3 Zrotation Yrotation Xrotation
						End Site
						{
							OFFSET 0.000000 0.000000 0.000000
						}
					}
				}
				JOINT joint_6
				{
					OFFSET -6.477539 -28.517334 68.237061
					CHANNELS 3 Zrotation Yrotation Xrotation
					JOINT joint_7
					{
						OFFSET -20.564453 -115.426208 -21.139038
						CHANNELS 3 Zrotation Yrotation Xrotation
						JOINT joint_8
						{
							OFFSET 18.981934 -19.826172 -267.898926
							CHANNELS 3 Zrotation Yrotation Xrotation
							JOINT joint_9
							{
								OFFSET 11.562744 -19.325867 -235.478027
								CHANNELS 3 Zrotation Yrotation Xrotation
								End Site
								{
									OFFSET 0.000000 0.000000 0.000000
								}
							}
						}
					}
				}
				JOINT joint_10
				{
					OFFSET 7.033936 23.504700 70.088989
					CHANNELS 3 Zrotation Yrotation Xrotation
					JOINT joint_11
					{
						OFFSET 36.629639 112.486816 -14.036987
						CHANNELS 3 Zrotation Yrotation Xrotation
						JOINT joint_12
						{
							OFFSET 41.355225 -7.048523 -266.019897
							CHANNELS 3 Zrotation Yrotation Xrotation
							JOINT joint_13
							{
								OFFSET 5.858887 29.785156 -234.603027
								CHANNELS 3 Zrotation Yrotation Xrotation
								End Site
								{
									OFFSET 0.000000 0.000000 0.000000
								}
							}
						}
					}
				}
			}
		}
	}
	JOINT joint_14
	{
		OFFSET -8.917725 -79.985535 -99.035034
		CHANNELS 3 Zrotation Yrotation Xrotation
		JOINT joint_15
		{
			OFFSET -32.739502 -31.478882 -502.570984
			CHANNELS 3 Zrotation Yrotation Xrotation
			JOINT joint_16
			{
				OFFSET 7.393066 -29.352966 -399.008011
				CHANNELS 3 Zrotation Yrotation Xrotation
				JOINT joint_17
				{
					OFFSET 178.013916 -26.060303 -71.875002
					CHANNELS 3 Zrotation Yrotation Xrotation
					End Site
					{
						OFFSET 0.000000 0.000000 0.000000
					}
				}
			}
		}
	}
	JOINT joint_18
	{
		OFFSET 1.900879 81.159851 -98.481018
		CHANNELS 3 Zrotation Yrotation Xrotation
		JOINT joint_19
		{
			OFFSET -15.120850 31.602051 -503.400024
			CHANNELS 3 Zrotation Yrotation Xrotation
			JOINT joint_20
			{
				OFFSET -16.653076 23.887695 -399.091988
				CHANNELS 3 Zrotation Yrotation Xrotation
				JOINT joint_21
				{
					OFFSET 179.618164 -1.217651 -72.592001
					CHANNELS 3 Zrotation Yrotation Xrotation
					End Site
					{
						OFFSET 0.000000 0.000000 0.000000
					}
				}
			}
		}
	}
}
MOTION
Frames: 6
Frame Time: 0.016667
-3257.801025 778.542542 1092.405029 2.742077 0.915080 0.055232 0.631191 -3.243108 -1.942411 0.797178 0.504121 0.359499 0.721096 -0.680160 -0.447210 -0.011429 0.493885 0.244627 0.000000 0.000000 0.000000 -0.072841 0.644655 -0.068673 0.203560 0.056304 2.959338 -0.104566 0.891040 -0.563778 0.000000 0.000000 0.000000 3.429955 2.843847 0.351573 0.552917 2.470173 0.365407 0.002233 1.036675 -3.651751 0.000000 0.000000 0.000000 -0.365590 3.320845 -1.556501 -0.267798 -2.025045 2.269853 -0.442455 -0.183029 -0.204714 0.000000 0.000000 0.000000 1.382276 1.983292 1.619656 1.437583 1.200084 -1.564599 1.136773 -2.465519 0.440372 0.000000 0.000000 0.000000 
-3257.345947 778.675110 1092.332031 2.665028 0.986411 0.063468 0.585277 -3.272813 -1.925809 0.749776 0.509351 0.350316 0.674756 -0.683392 -0.440734 -0.008260 0.422570 0.203230 0.000000 0.000000 0.000000 -0.066221 0.647099 -0.073718 0.207718 0.049512 3.008001 -0.103014 0.877211 -0.560837 0.000000 0.000000 0.000000 3.529821 2.853692 0.378119 0.560841 2.504723 0.280596 0.018873 1.169352 -3.673033 0.000000 0.000000 0.000000 -0.334825 3.246561 -1.597825 -0.249613 -1.991963 2.313865 -0.419722 -0.221888 -0.201250 0.000000 0.000000 0.000000 1.405385 1.934290 1.604646 1.464602 1.219122 -1.580172 1.160469 -2.485843 0.449742 0.000000 0.000000 0.000000 
-3256.726807 778.807800 1092.235962 2.564805 1.093543 0.077089 0.529177 -3.315019 -1.913091 0.692411 0.515109 0.342519 0.618240 -0.690099 -0.434997 -0.004693 0.335182 0.153750 0.000000 0.000000 0.000000 -0.058501 0.650855 -0.082944 0.212187 0.042677 3.060685 -0.100560 0.856585 -0.552341 0.000000 0.000000 0.000000 3.632040 2.862364 0.419925 0.570204 2.548862 0.177619 0.039739 1.333016 -3.693679 0.000000 0.000000 0.000000 -0.293563 3.140843 -1.650578 -0.224128 -1.961502 2.366340 -0.390104 -0.258612 -0.194702 0.000000 0.000000 0.000000 1.435567 1.863239 1.581767 1.499177 1.229541 -1.596332 1.191773 -2.510669 0.462129 0.000000 0.000000 0.000000 
-3255.969482 778.938416 1092.121948 2.447169 1.230993 0.094671 0.464411 -3.370478 -1.902664 0.626523 0.523310 0.334499 0.553124 -0.697359 -0.429951 -0.001736 0.231558 0.100175 0.000000 0.000000 0.000000 -0.052614 0.653858 -0.093049 0.216859 0.034279 3.114804 -0.097472 0.831715 -0.538744 0.000000 0.000000 0.000000 3.738284 2.866787 0.475020 0.581311 2.597930 0.058747 0.064580 1.526509 -3.713633 0.000000 0.000000 0.000000 -0.244146 3.009006 -1.711330 -0.192890 -1.933958 2.424189 -0.355168 -0.292752 -0.185635 0.000000 0.000000 0.000000 1.470730 1.772833 1.553051 1.539269 1.233287 -1.613180 1.228662 -2.538452 0.476730 0.000000 0.000000 0.000000 
-3254.951416 779.094299 1091.984985 2.300648 1.405445 0.120086 0.386218 -3.432241 -1.891592 0.546988 0.533095 0.324847 0.474525 -0.706613 -0.423922 0.001620 0.105160 0.035761 0.000000 0.000000 0.000000 -0.055169 0.658327 -0.114011 0.222040 0.023128 3.172281 -0.093407 0.799173 -0.519299 0.000000 0.000000 0.000000 3.825043 2.887287 0.548458 0.592610 2.674844 -0.070681 0.089048 1.720856 -3.760365 0.000000 0.000000 0.000000 -0.184289 2.851884 -1.793330 -0.155243 -1.910691 2.501019 -0.313149 -0.344531 -0.176299 0.000000 0.000000 0.000000 1.512892 1.658111 1.511322 1.587825 1.246505 -1.626753 1.272312 -2.585849 0.493892 0.000000 0.000000 0.000000 
-3253.624023 779.291992 1091.812012 2.122689 1.621782 0.158055 0.288784 -3.493205 -1.884993 0.448213 0.539190 0.316089 0.376639 -0.714448 -0.418642 0.005028 -0.045257 -0.038638 0.000000 0.000000 0.000000 -0.068191 0.661734 -0.147639 0.227829 0.006217 3.231811 -0.088036 0.756923 -0.490560 0.000000 0.000000 0.000000 3.879560 2.930596 0.644175 0.605774 2.788584 -0.208442 0.111780 1.909078 -3.857429 0.000000 0.000000 0.000000 -0.115111 2.668971 -1.905658 -0.113573 -1.894455 2.609556 -0.265625 -0.431469 -0.169888 0.000000 0.000000 0.000000 1.561073 1.517064 1.450013 1.643802 1.270187 -1.635600 1.321527 -2.655718 0.513106 0.000000 0.000000 0.000000 
